<mxfile host="app.diagrams.net" agent="Mozilla/5.0 (X11; Linux x86_64; rv:135.0) Gecko/20100101 Firefox/135.0" version="28.0.7">
  <diagram name="Page-1" id="UdgtCOg9UXMHosfVLhvG">
    <mxGraphModel dx="1293" dy="1743" grid="1" gridSize="10" guides="1" tooltips="1" connect="1" arrows="1" fold="1" page="1" pageScale="1" pageWidth="1169" pageHeight="827" math="0" shadow="0">
      <root>
        <mxCell id="0" />
        <mxCell id="1" parent="0" />
        <mxCell id="MHuZDl--qb3jeEwY4W-m-1" value="&lt;div align=&quot;left&quot;&gt;&amp;nbsp;&lt;b&gt;&lt;font style=&quot;font-size: 15px;&quot;&gt;users&lt;/font&gt;&lt;/b&gt;&lt;hr&gt;&lt;/div&gt;&lt;div align=&quot;left&quot;&gt;&amp;nbsp;&lt;span style=&quot;color: light-dark(rgb(0, 0, 0), rgb(255, 255, 0));&quot;&gt;&lt;b&gt;user_id&lt;/b&gt;&lt;span style=&quot;white-space: pre;&quot;&gt;&#x9;&lt;/span&gt;&lt;/span&gt;&lt;span style=&quot;white-space: pre;&quot;&gt;&#x9;&lt;span style=&quot;white-space: pre;&quot;&gt;&#x9;&lt;/span&gt;&lt;/span&gt;&lt;font style=&quot;color: light-dark(rgb(0, 0, 0), rgb(255, 255, 0));&quot;&gt;INT AUTO_INCREMENT PK&lt;/font&gt;&lt;br&gt;&amp;nbsp;username&lt;span style=&quot;white-space: pre;&quot;&gt;&#x9;&lt;/span&gt;&lt;span style=&quot;white-space: pre;&quot;&gt;&#x9;&lt;/span&gt;&lt;font&gt;VARCHAR, UNIQUE&lt;/font&gt;&lt;/div&gt;&lt;div align=&quot;left&quot;&gt;&amp;nbsp;nickname&lt;span style=&quot;white-space: pre;&quot;&gt;&#x9;&lt;span style=&quot;white-space: pre;&quot;&gt;&#x9;&lt;/span&gt;&lt;/span&gt;&lt;font&gt;VARCHAR, UNIQUE&lt;/font&gt;&lt;br&gt;&amp;nbsp;email&lt;span style=&quot;white-space: pre;&quot;&gt;&#x9;&lt;/span&gt;&lt;span style=&quot;white-space: pre;&quot;&gt;&#x9;&lt;/span&gt;&lt;span style=&quot;white-space: pre;&quot;&gt;&#x9;&lt;/span&gt;&lt;font&gt;VARCHAR, UNIQUE&lt;/font&gt;&lt;br&gt;&amp;nbsp;password_hash &lt;span style=&quot;white-space: pre;&quot;&gt;&#x9;&lt;/span&gt;VARCHAR&lt;br&gt;&amp;nbsp;twofa_secret&amp;nbsp;&amp;nbsp; &lt;span style=&quot;white-space: pre;&quot;&gt;&#x9;&lt;/span&gt;VARCHAR, encrypted&lt;br&gt;&amp;nbsp;avatar&amp;nbsp;&amp;nbsp;&amp;nbsp;&amp;nbsp;&amp;nbsp;&amp;nbsp;&amp;nbsp;&amp;nbsp; &lt;span style=&quot;white-space: pre;&quot;&gt;&#x9;&lt;/span&gt;&lt;span style=&quot;white-space: pre;&quot;&gt;&#x9;&lt;/span&gt;TEXT or URL&lt;br&gt;&amp;nbsp;preferred_lang &lt;span style=&quot;white-space: pre;&quot;&gt;&#x9;&lt;/span&gt;VARCHAR, default &#39;en&#39;&lt;br&gt;&amp;nbsp;created_at&amp;nbsp;&amp;nbsp;&amp;nbsp;&amp;nbsp;&lt;span style=&quot;white-space: pre;&quot;&gt;&#x9;&lt;/span&gt; &lt;span style=&quot;white-space: pre;&quot;&gt;&#x9;&lt;/span&gt;DATETIME&lt;br&gt;&amp;nbsp;updated_at&amp;nbsp;&amp;nbsp;&amp;nbsp;&amp;nbsp; &lt;span style=&quot;white-space: pre;&quot;&gt;&#x9;&lt;/span&gt;DATETIME&lt;/div&gt;&lt;div align=&quot;left&quot;&gt;&lt;br&gt;&lt;/div&gt;" style="rounded=0;whiteSpace=wrap;html=1;align=left;glass=0;fontSize=12;spacingTop=2;spacing=10;strokeWidth=2;" parent="1" vertex="1">
          <mxGeometry x="47" y="330" width="280" height="220" as="geometry" />
        </mxCell>
        <mxCell id="MHuZDl--qb3jeEwY4W-m-3" value="&lt;div align=&quot;left&quot;&gt;&amp;nbsp;&lt;b&gt;&lt;font style=&quot;font-size: 15px;&quot;&gt;friendships&lt;/font&gt;&lt;/b&gt;&lt;hr&gt;&lt;/div&gt;&lt;div align=&quot;left&quot;&gt;&amp;nbsp;&lt;span style=&quot;color: light-dark(rgb(0, 0, 0), rgb(255, 102, 102));&quot;&gt;&lt;span style=&quot;color: light-dark(rgb(0, 0, 0), rgb(255, 255, 102));&quot;&gt;user_id&lt;/span&gt;&lt;/span&gt;&lt;span style=&quot;white-space: pre;&quot;&gt;&lt;span style=&quot;white-space: pre;&quot;&gt;&#x9;&lt;/span&gt;&lt;span style=&quot;white-space: pre;&quot;&gt;&#x9;&lt;/span&gt;&lt;span style=&quot;white-space: pre;&quot;&gt;&#x9;&lt;/span&gt;&lt;span style=&quot;color: light-dark(rgb(0, 0, 0), rgb(255, 255, 102));&quot;&gt;INT&lt;/span&gt;&lt;/span&gt;&lt;/div&gt;&lt;div align=&quot;left&quot;&gt;&lt;span style=&quot;white-space: pre;&quot;&gt; &lt;span style=&quot;color: light-dark(rgb(0, 0, 0), rgb(255, 255, 102));&quot;&gt;friend_id&lt;span style=&quot;white-space: pre;&quot;&gt;&#x9;&lt;/span&gt;&lt;span style=&quot;white-space: pre;&quot;&gt;&#x9;&lt;/span&gt;&lt;span style=&quot;white-space: pre;&quot;&gt;&#x9;&lt;/span&gt;INT&lt;/span&gt;&lt;/span&gt;&lt;/div&gt;&lt;div align=&quot;left&quot;&gt;&amp;nbsp;status&lt;span style=&quot;white-space: pre;&quot;&gt;&lt;span style=&quot;white-space: pre;&quot;&gt;&#x9;&lt;/span&gt;&lt;/span&gt;&lt;font&gt;&lt;span style=&quot;white-space: pre;&quot;&gt;&#x9;&lt;/span&gt;&lt;span style=&quot;white-space: pre;&quot;&gt;&#x9;&lt;/span&gt;ENUM(&#39;pending&#39;, &#39;accepted&#39;...)&lt;/font&gt;&lt;br&gt;&amp;nbsp;created_at&lt;span style=&quot;white-space: pre;&quot;&gt;&#x9;&lt;/span&gt;&lt;span style=&quot;white-space: pre;&quot;&gt;&#x9;&lt;/span&gt;&lt;font&gt;DATETIME&lt;br&gt;&amp;nbsp;&lt;span style=&quot;color: light-dark(rgb(0, 0, 0), rgb(153, 153, 153));&quot;&gt;PK (user_id, friend_id)&lt;/span&gt;&lt;/font&gt;&lt;/div&gt;" style="rounded=0;whiteSpace=wrap;html=1;align=left;glass=0;fontSize=12;spacingTop=2;spacing=10;strokeWidth=2;" parent="1" vertex="1">
          <mxGeometry x="437" y="120" width="293" height="130" as="geometry" />
        </mxCell>
        <mxCell id="MHuZDl--qb3jeEwY4W-m-5" value="&lt;div align=&quot;left&quot;&gt;&amp;nbsp;&lt;b&gt;&lt;font style=&quot;font-size: 15px;&quot;&gt;tournaments&lt;/font&gt;&lt;/b&gt;&lt;hr&gt;&lt;/div&gt;&lt;div align=&quot;left&quot;&gt;&amp;nbsp;&lt;span style=&quot;color: light-dark(rgb(0, 0, 0), rgb(255, 102, 102));&quot;&gt;&lt;b&gt;tournament_id&lt;/b&gt;&lt;span style=&quot;white-space: pre;&quot;&gt;&#x9;&lt;/span&gt;INT AUTO_INCREMENT PK&lt;/span&gt;&lt;/div&gt;&lt;div align=&quot;left&quot;&gt;&amp;nbsp;tournament_name&lt;span style=&quot;white-space: pre;&quot;&gt;&#x9;&lt;/span&gt;&lt;font&gt;VARCHAR&lt;/font&gt;&lt;/div&gt;&lt;div align=&quot;left&quot;&gt;&amp;nbsp;start_datetime&lt;span style=&quot;white-space: pre;&quot;&gt;&lt;span style=&quot;white-space: pre;&quot;&gt;&#x9;&lt;/span&gt;&lt;/span&gt;&lt;font&gt;DATETIME&lt;/font&gt;&lt;br&gt;&amp;nbsp;end_datetime&lt;span style=&quot;white-space: pre;&quot;&gt;&#x9;&lt;/span&gt;&lt;span style=&quot;white-space: pre;&quot;&gt;&#x9;DATETIM&lt;/span&gt;&lt;font&gt;E&lt;/font&gt;&lt;br&gt;&amp;nbsp;players_limit&lt;span style=&quot;white-space: pre;&quot;&gt;&#x9;&lt;/span&gt;&lt;span style=&quot;white-space: pre;&quot;&gt;&#x9;&lt;/span&gt;INT&lt;br&gt;&amp;nbsp;winner_ID &amp;nbsp; &lt;span style=&quot;white-space: pre;&quot;&gt;&#x9;&lt;span style=&quot;white-space: pre;&quot;&gt;&#x9;&lt;/span&gt;INT&lt;/span&gt;&lt;br&gt;&lt;/div&gt;&lt;div align=&quot;left&quot;&gt;&lt;br&gt;&lt;/div&gt;" style="rounded=0;whiteSpace=wrap;html=1;align=left;glass=0;fontSize=12;spacingTop=2;spacing=10;strokeWidth=2;" parent="1" vertex="1">
          <mxGeometry x="826" y="178" width="279" height="160" as="geometry" />
        </mxCell>
        <mxCell id="MHuZDl--qb3jeEwY4W-m-6" value="&lt;div align=&quot;left&quot;&gt;&amp;nbsp;&lt;b&gt;&lt;font style=&quot;font-size: 15px;&quot;&gt;matches&lt;/font&gt;&lt;/b&gt;&lt;hr&gt;&lt;/div&gt;&lt;div align=&quot;left&quot;&gt;&lt;span style=&quot;background-color: light-dark(rgb(255, 255, 255), rgb(213, 232, 212));&quot;&gt;&lt;span style=&quot;background-color: light-dark(#ffffff, var(--ge-dark-color, #121212));&quot;&gt;&amp;nbsp;&lt;/span&gt;&lt;/span&gt;&lt;span style=&quot;color: light-dark(rgb(0, 0, 0), rgb(51, 255, 255));&quot;&gt;&lt;b&gt;match_ID&lt;/b&gt;&lt;span style=&quot;white-space: pre;&quot;&gt;&#x9;&lt;/span&gt;&lt;span style=&quot;white-space: pre;&quot;&gt;&#x9;&lt;/span&gt;INT AUTO_INCREMENT PK&lt;/span&gt;&lt;span style=&quot;color: light-dark(rgb(0, 0, 0), rgb(255, 153, 153));&quot;&gt;&lt;br&gt;&lt;/span&gt;&lt;/div&gt;&lt;div align=&quot;left&quot;&gt;&lt;span style=&quot;color: light-dark(rgb(0, 0, 0), rgb(255, 153, 153));&quot;&gt;&amp;nbsp;tournament_id&lt;/span&gt;&lt;span style=&quot;white-space: pre;&quot;&gt;&#x9;&lt;/span&gt;&lt;span style=&quot;color: light-dark(rgb(0, 0, 0), rgb(255, 153, 153));&quot;&gt;INT&lt;/span&gt;&lt;/div&gt;&lt;div align=&quot;left&quot;&gt;&amp;nbsp;round_number&lt;span style=&quot;white-space: pre;&quot;&gt;&#x9;&lt;/span&gt;&lt;span style=&quot;white-space: pre;&quot;&gt;INT&#x9;&lt;/span&gt;&lt;/div&gt;&lt;div align=&quot;left&quot;&gt;&amp;nbsp;match_datetime&lt;span style=&quot;white-space: pre;&quot;&gt;&lt;span style=&quot;white-space: pre;&quot;&gt;&#x9;&lt;/span&gt;&lt;/span&gt;&lt;font&gt;DATETIME&lt;/font&gt;&lt;br&gt;&amp;nbsp;&lt;span style=&quot;color: light-dark(rgb(0, 0, 0), rgb(255, 255, 153));&quot;&gt;player1_ID&lt;span style=&quot;white-space: pre;&quot;&gt;&#x9;&lt;/span&gt;&lt;span style=&quot;white-space: pre;&quot;&gt;&#x9;INT&lt;/span&gt;&lt;/span&gt;&lt;br&gt;&lt;span style=&quot;color: light-dark(rgb(0, 0, 0), rgb(255, 255, 153));&quot;&gt;&amp;nbsp;player2_ID&lt;span style=&quot;white-space: pre;&quot;&gt;&#x9;&lt;/span&gt;&lt;span style=&quot;white-space: pre;&quot;&gt;&#x9;&lt;/span&gt;INT&lt;/span&gt;&lt;br&gt;&amp;nbsp;score1&lt;span style=&quot;white-space: pre;&quot;&gt;&#x9;&lt;/span&gt; &amp;nbsp; &lt;span style=&quot;white-space: pre;&quot;&gt;&#x9;&lt;span style=&quot;white-space: pre;&quot;&gt;&#x9;&lt;/span&gt;INT&lt;/span&gt;&lt;br&gt;&lt;/div&gt;&lt;div align=&quot;left&quot;&gt;&amp;nbsp;score2&lt;span style=&quot;white-space: pre;&quot;&gt;&#x9;&lt;/span&gt;&lt;span style=&quot;white-space: pre;&quot;&gt;&#x9;&lt;/span&gt;&lt;span style=&quot;white-space: pre;&quot;&gt;&#x9;&lt;/span&gt;INT&lt;/div&gt;&lt;div align=&quot;left&quot;&gt;&amp;nbsp;winner_id&lt;span style=&quot;white-space: pre;&quot;&gt;&#x9;&lt;/span&gt;&lt;span style=&quot;white-space: pre;&quot;&gt;&#x9;&lt;/span&gt;INT&lt;/div&gt;" style="rounded=0;whiteSpace=wrap;html=1;align=left;glass=0;fontSize=12;spacingTop=2;spacing=10;strokeWidth=2;" parent="1" vertex="1">
          <mxGeometry x="825" y="365" width="280" height="200" as="geometry" />
        </mxCell>
        <mxCell id="MHuZDl--qb3jeEwY4W-m-7" value="&lt;div align=&quot;left&quot;&gt;&amp;nbsp;&lt;b&gt;&lt;font style=&quot;font-size: 15px;&quot;&gt;tournament_register&lt;/font&gt;&lt;/b&gt;&lt;hr&gt;&lt;/div&gt;&lt;div align=&quot;left&quot;&gt;&amp;nbsp;&lt;span style=&quot;color: light-dark(rgb(0, 0, 0), rgb(255, 153, 153));&quot;&gt;tournament_id&lt;span style=&quot;white-space: pre;&quot;&gt;&#x9;&lt;/span&gt;INT&lt;/span&gt;&lt;/div&gt;&lt;div align=&quot;left&quot;&gt;&lt;span style=&quot;color: light-dark(rgb(0, 0, 0), rgb(255, 255, 153));&quot;&gt;&amp;nbsp;user_id&lt;span style=&quot;white-space: pre;&quot;&gt;&#x9;&lt;/span&gt;&lt;span style=&quot;white-space: pre;&quot;&gt;&#x9;&lt;/span&gt;&lt;span style=&quot;white-space: pre;&quot;&gt;&#x9;&lt;/span&gt;INT&lt;/span&gt;&lt;/div&gt;&lt;div align=&quot;left&quot;&gt;&amp;nbsp;status&lt;span style=&quot;white-space: pre;&quot;&gt;&lt;span style=&quot;white-space: pre;&quot;&gt;&#x9;&lt;/span&gt;&lt;/span&gt;&lt;font&gt;&lt;span style=&quot;white-space: pre;&quot;&gt;&#x9;&lt;/span&gt;&lt;span style=&quot;white-space: pre;&quot;&gt;&#x9;ENUM(&#39;confirmed&#39;, &#39;waiting&#39;...)&lt;/span&gt;&lt;/font&gt;&lt;br&gt;&amp;nbsp;registered_at&lt;span style=&quot;white-space: pre;&quot;&gt;&#x9;&lt;/span&gt;&lt;span style=&quot;white-space: pre;&quot;&gt;&#x9;&lt;/span&gt;&lt;font&gt;DATETIME&lt;/font&gt;&lt;/div&gt;&lt;div align=&quot;left&quot;&gt;&lt;font style=&quot;color: light-dark(rgb(0, 0, 0), rgb(153, 153, 153));&quot;&gt;&amp;nbsp;PK (tournament_id, user_id)&lt;br&gt;&amp;nbsp;FK (tournament_id) → tournaments.tournament_id&lt;br&gt;&amp;nbsp;FK (user_id) → users.user_id&lt;/font&gt;&lt;/div&gt;" style="rounded=0;whiteSpace=wrap;html=1;align=left;glass=0;fontSize=12;spacingTop=2;spacing=10;strokeWidth=2;" parent="1" vertex="1">
          <mxGeometry x="437" y="290" width="293" height="170" as="geometry" />
        </mxCell>
        <mxCell id="MHuZDl--qb3jeEwY4W-m-8" value="&lt;div align=&quot;left&quot;&gt;&amp;nbsp;&lt;b&gt;&lt;font style=&quot;font-size: 15px;&quot;&gt;games&lt;/font&gt;&lt;/b&gt;&lt;hr&gt;&lt;/div&gt;&lt;div align=&quot;left&quot;&gt;&amp;nbsp;&lt;b&gt;&lt;span style=&quot;color: light-dark(rgb(0, 0, 0), rgb(102, 255, 102));&quot;&gt;game_id&lt;/span&gt;&lt;/b&gt;&lt;span style=&quot;white-space: pre;&quot;&gt;&#x9;&lt;/span&gt;&lt;span style=&quot;white-space: pre;&quot;&gt;&#x9;&lt;/span&gt;&lt;span style=&quot;color: light-dark(rgb(0, 0, 0), rgb(102, 255, 102));&quot;&gt;INT AUTO_INCREMENT PK&lt;span style=&quot;color: light-dark(rgb(0, 0, 0), rgb(255, 255, 153));&quot;&gt;&lt;br&gt;&lt;/span&gt;&lt;/span&gt;&lt;/div&gt;&lt;div align=&quot;left&quot;&gt;&lt;span style=&quot;color: light-dark(rgb(0, 0, 0), rgb(255, 255, 153));&quot;&gt;&amp;nbsp;player&lt;span style=&quot;white-space: pre;&quot;&gt;_id&lt;/span&gt;&lt;span style=&quot;white-space: pre;&quot;&gt;&#x9;&lt;/span&gt;&lt;span style=&quot;white-space: pre;&quot;&gt;&#x9;&lt;/span&gt;INT&lt;/span&gt;&amp;nbsp;&lt;/div&gt;&lt;div align=&quot;left&quot;&gt;&amp;nbsp;played_at&lt;span style=&quot;white-space: pre;&quot;&gt;&lt;span style=&quot;white-space: pre;&quot;&gt;&#x9;&lt;span style=&quot;white-space: pre;&quot;&gt;&#x9;&lt;/span&gt;&lt;/span&gt;&lt;/span&gt;&lt;font&gt;DATETIME&lt;/font&gt;&lt;br&gt;&amp;nbsp;score&lt;span style=&quot;white-space: pre;&quot;&gt;&#x9;&lt;/span&gt;&lt;span style=&quot;white-space: pre;&quot;&gt;&#x9;&lt;/span&gt;&lt;span style=&quot;white-space: pre;&quot;&gt;&#x9;INT&lt;/span&gt;&lt;br&gt;&amp;nbsp;blocks_destroyed&lt;span style=&quot;white-space: pre;&quot;&gt;&#x9;&lt;/span&gt;INT&lt;br&gt;&amp;nbsp;game_duration&lt;span style=&quot;white-space: pre;&quot;&gt;&#x9;INT&lt;/span&gt;&lt;br&gt;&lt;/div&gt;&lt;div align=&quot;left&quot;&gt;&lt;br&gt;&lt;/div&gt;" style="rounded=0;whiteSpace=wrap;html=1;align=left;glass=0;fontSize=12;spacingTop=2;spacing=10;strokeWidth=2;" parent="1" vertex="1">
          <mxGeometry x="437" y="546" width="293" height="160" as="geometry" />
        </mxCell>
        <mxCell id="-MmSUzmKGsfKyfyNyLE_-3" value="" style="endArrow=oval;html=1;rounded=0;exitX=1;exitY=0.25;exitDx=0;exitDy=0;entryX=-0.004;entryY=0.58;entryDx=0;entryDy=0;entryPerimeter=0;strokeColor=light-dark(#000000,#FFFF66);align=center;verticalAlign=middle;fontFamily=Helvetica;fontSize=11;fontColor=default;labelBackgroundColor=default;curved=1;startArrow=block;startFill=1;endFill=1;" parent="1" source="MHuZDl--qb3jeEwY4W-m-1" target="MHuZDl--qb3jeEwY4W-m-7" edge="1">
          <mxGeometry width="50" height="50" relative="1" as="geometry">
            <mxPoint x="397" y="470" as="sourcePoint" />
            <mxPoint x="447" y="420" as="targetPoint" />
          </mxGeometry>
        </mxCell>
        <mxCell id="2uwC-OZRnTKWb9pU1a_G-3" value="N : 1" style="edgeLabel;html=1;align=center;verticalAlign=middle;resizable=0;points=[];fontFamily=Helvetica;fontSize=11;fontColor=light-dark(#000000,#FFFF66);labelBackgroundColor=default;fillColor=none;gradientColor=none;" vertex="1" connectable="0" parent="-MmSUzmKGsfKyfyNyLE_-3">
          <mxGeometry x="0.0974" relative="1" as="geometry">
            <mxPoint as="offset" />
          </mxGeometry>
        </mxCell>
        <mxCell id="-MmSUzmKGsfKyfyNyLE_-4" value="" style="curved=1;endArrow=oval;html=1;rounded=0;entryX=0;entryY=0.462;entryDx=0;entryDy=0;entryPerimeter=0;strokeColor=light-dark(#000000,#FFFF66);startArrow=block;startFill=1;endFill=1;" parent="1" target="MHuZDl--qb3jeEwY4W-m-3" edge="1">
          <mxGeometry width="50" height="50" relative="1" as="geometry">
            <mxPoint x="327" y="385" as="sourcePoint" />
            <mxPoint x="417" y="220" as="targetPoint" />
            <Array as="points">
              <mxPoint x="377" y="370" />
              <mxPoint x="377" y="180" />
            </Array>
          </mxGeometry>
        </mxCell>
        <mxCell id="2uwC-OZRnTKWb9pU1a_G-1" value="N : 1" style="edgeLabel;html=1;align=center;verticalAlign=middle;resizable=0;points=[];fontFamily=Helvetica;fontSize=11;fontColor=light-dark(#000000,#FFFF66);labelBackgroundColor=default;fillColor=none;gradientColor=none;" vertex="1" connectable="0" parent="-MmSUzmKGsfKyfyNyLE_-4">
          <mxGeometry x="-0.0205" y="-1" relative="1" as="geometry">
            <mxPoint as="offset" />
          </mxGeometry>
        </mxCell>
        <mxCell id="-MmSUzmKGsfKyfyNyLE_-5" value="" style="curved=1;endArrow=oval;html=1;rounded=0;exitX=1;exitY=0.25;exitDx=0;exitDy=0;entryX=0;entryY=0.441;entryDx=0;entryDy=0;entryPerimeter=0;strokeColor=light-dark(#000000,#FFFF66);align=center;verticalAlign=middle;fontFamily=Helvetica;fontSize=11;fontColor=default;labelBackgroundColor=default;startArrow=block;startFill=1;endFill=1;" parent="1" source="MHuZDl--qb3jeEwY4W-m-1" target="MHuZDl--qb3jeEwY4W-m-8" edge="1">
          <mxGeometry width="50" height="50" relative="1" as="geometry">
            <mxPoint x="347" y="430" as="sourcePoint" />
            <mxPoint x="397" y="580" as="targetPoint" />
            <Array as="points">
              <mxPoint x="370" y="410" />
              <mxPoint x="367" y="610" />
            </Array>
          </mxGeometry>
        </mxCell>
        <mxCell id="2uwC-OZRnTKWb9pU1a_G-6" value="N : 1" style="edgeLabel;html=1;align=center;verticalAlign=middle;resizable=0;points=[];fontFamily=Helvetica;fontSize=11;fontColor=light-dark(#000000,#FFFF66);labelBackgroundColor=default;fillColor=none;gradientColor=none;" vertex="1" connectable="0" parent="-MmSUzmKGsfKyfyNyLE_-5">
          <mxGeometry x="-0.0289" y="1" relative="1" as="geometry">
            <mxPoint as="offset" />
          </mxGeometry>
        </mxCell>
        <mxCell id="-MmSUzmKGsfKyfyNyLE_-6" value="" style="curved=1;endArrow=oval;html=1;rounded=0;entryX=-0.002;entryY=0.594;entryDx=0;entryDy=0;entryPerimeter=0;exitX=1;exitY=0.25;exitDx=0;exitDy=0;strokeColor=light-dark(#000000,#FFFF66);align=center;verticalAlign=middle;fontFamily=Helvetica;fontSize=11;fontColor=default;labelBackgroundColor=default;startArrow=block;startFill=1;endFill=1;" parent="1" source="MHuZDl--qb3jeEwY4W-m-1" target="MHuZDl--qb3jeEwY4W-m-3" edge="1">
          <mxGeometry width="50" height="50" relative="1" as="geometry">
            <mxPoint x="332" y="384" as="sourcePoint" />
            <mxPoint x="442" y="179" as="targetPoint" />
            <Array as="points">
              <mxPoint x="397" y="370" />
              <mxPoint x="387" y="200" />
            </Array>
          </mxGeometry>
        </mxCell>
        <mxCell id="2uwC-OZRnTKWb9pU1a_G-2" value="N : 1" style="edgeLabel;html=1;align=center;verticalAlign=middle;resizable=0;points=[];fontColor=light-dark(#000000,#FFFF66);" vertex="1" connectable="0" parent="-MmSUzmKGsfKyfyNyLE_-6">
          <mxGeometry x="0.0452" y="-1" relative="1" as="geometry">
            <mxPoint as="offset" />
          </mxGeometry>
        </mxCell>
        <mxCell id="-MmSUzmKGsfKyfyNyLE_-7" value="" style="curved=1;endArrow=oval;html=1;rounded=0;entryX=-0.002;entryY=0.592;entryDx=0;entryDy=0;entryPerimeter=0;exitX=1;exitY=0.25;exitDx=0;exitDy=0;strokeColor=light-dark(#000000,#FFFF66);align=center;verticalAlign=middle;fontFamily=Helvetica;fontSize=11;fontColor=default;labelBackgroundColor=default;startArrow=block;startFill=1;endFill=1;" parent="1" source="MHuZDl--qb3jeEwY4W-m-1" target="MHuZDl--qb3jeEwY4W-m-6" edge="1">
          <mxGeometry width="50" height="50" relative="1" as="geometry">
            <mxPoint x="327" y="390" as="sourcePoint" />
            <mxPoint x="797" y="490" as="targetPoint" />
            <Array as="points">
              <mxPoint x="397" y="400" />
              <mxPoint x="417" y="470" />
              <mxPoint x="587" y="483" />
            </Array>
          </mxGeometry>
        </mxCell>
        <mxCell id="2uwC-OZRnTKWb9pU1a_G-4" value="&amp;nbsp;N : 1 " style="edgeLabel;html=1;align=center;verticalAlign=middle;resizable=0;points=[];fontFamily=Helvetica;fontSize=11;fontColor=light-dark(#000000,#FFFF66);labelBackgroundColor=default;fillColor=none;gradientColor=none;" vertex="1" connectable="0" parent="-MmSUzmKGsfKyfyNyLE_-7">
          <mxGeometry x="0.1704" y="2" relative="1" as="geometry">
            <mxPoint as="offset" />
          </mxGeometry>
        </mxCell>
        <mxCell id="-MmSUzmKGsfKyfyNyLE_-8" value="" style="curved=1;endArrow=oval;html=1;rounded=0;entryX=0;entryY=0.669;entryDx=0;entryDy=0;entryPerimeter=0;exitX=1;exitY=0.25;exitDx=0;exitDy=0;strokeColor=light-dark(#000000,#FFFF66);align=center;verticalAlign=middle;fontFamily=Helvetica;fontSize=11;fontColor=default;labelBackgroundColor=default;startArrow=block;startFill=1;endFill=1;" parent="1" source="MHuZDl--qb3jeEwY4W-m-1" target="MHuZDl--qb3jeEwY4W-m-6" edge="1">
          <mxGeometry width="50" height="50" relative="1" as="geometry">
            <mxPoint x="328" y="401" as="sourcePoint" />
            <mxPoint x="817" y="499" as="targetPoint" />
            <Array as="points">
              <mxPoint x="387" y="420" />
              <mxPoint x="397" y="486" />
              <mxPoint x="588" y="499" />
            </Array>
          </mxGeometry>
        </mxCell>
        <mxCell id="2uwC-OZRnTKWb9pU1a_G-5" value="&amp;nbsp;N : 1 " style="edgeLabel;html=1;align=center;verticalAlign=middle;resizable=0;points=[];fontFamily=Helvetica;fontSize=11;fontColor=light-dark(#000000,#FFFF66);labelBackgroundColor=default;fillColor=none;gradientColor=none;" vertex="1" connectable="0" parent="-MmSUzmKGsfKyfyNyLE_-8">
          <mxGeometry x="0.3105" y="2" relative="1" as="geometry">
            <mxPoint as="offset" />
          </mxGeometry>
        </mxCell>
        <mxCell id="-MmSUzmKGsfKyfyNyLE_-10" value="" style="curved=1;endArrow=classic;html=1;rounded=0;exitX=1;exitY=0.466;exitDx=0;exitDy=0;exitPerimeter=0;entryX=-0.003;entryY=0.347;entryDx=0;entryDy=0;entryPerimeter=0;strokeColor=light-dark(#000000,#FF9999);startArrow=oval;startFill=1;" parent="1" source="MHuZDl--qb3jeEwY4W-m-7" target="MHuZDl--qb3jeEwY4W-m-5" edge="1">
          <mxGeometry width="50" height="50" relative="1" as="geometry">
            <mxPoint x="727" y="370" as="sourcePoint" />
            <mxPoint x="817" y="230" as="targetPoint" />
            <Array as="points">
              <mxPoint x="757" y="370" />
              <mxPoint x="757" y="240" />
            </Array>
          </mxGeometry>
        </mxCell>
        <mxCell id="2uwC-OZRnTKWb9pU1a_G-7" value="N : 1" style="edgeLabel;html=1;align=center;verticalAlign=middle;resizable=0;points=[];fontColor=light-dark(#000000,#FF9999);" vertex="1" connectable="0" parent="-MmSUzmKGsfKyfyNyLE_-10">
          <mxGeometry x="-0.042" y="-2" relative="1" as="geometry">
            <mxPoint as="offset" />
          </mxGeometry>
        </mxCell>
        <mxCell id="-MmSUzmKGsfKyfyNyLE_-11" value="" style="curved=1;endArrow=oval;html=1;rounded=0;entryX=0.001;entryY=0.365;entryDx=0;entryDy=0;entryPerimeter=0;exitX=0;exitY=0.345;exitDx=0;exitDy=0;exitPerimeter=0;strokeColor=light-dark(#000000,#FF9999);align=center;verticalAlign=middle;fontFamily=Helvetica;fontSize=11;fontColor=default;labelBackgroundColor=default;startArrow=classic;startFill=1;endFill=1;" parent="1" source="MHuZDl--qb3jeEwY4W-m-5" target="MHuZDl--qb3jeEwY4W-m-6" edge="1">
          <mxGeometry width="50" height="50" relative="1" as="geometry">
            <mxPoint x="807" y="260" as="sourcePoint" />
            <mxPoint x="787" y="450" as="targetPoint" />
            <Array as="points">
              <mxPoint x="777" y="280" />
              <mxPoint x="777" y="400" />
            </Array>
          </mxGeometry>
        </mxCell>
        <mxCell id="2uwC-OZRnTKWb9pU1a_G-8" value="N : 1" style="edgeLabel;html=1;align=center;verticalAlign=middle;resizable=0;points=[];fontFamily=Helvetica;fontSize=11;fontColor=light-dark(#000000,#FF9999);labelBackgroundColor=default;fillColor=none;gradientColor=none;" vertex="1" connectable="0" parent="-MmSUzmKGsfKyfyNyLE_-11">
          <mxGeometry x="-0.0654" y="2" relative="1" as="geometry">
            <mxPoint as="offset" />
          </mxGeometry>
        </mxCell>
        <mxCell id="2uwC-OZRnTKWb9pU1a_G-9" value="&lt;div align=&quot;left&quot;&gt;Entity Relationships Diagram (ERP):&lt;br&gt;&lt;font style=&quot;font-size: 21px;&quot;&gt;FK (foreigner key) level relationships&lt;/font&gt;&lt;/div&gt;" style="text;strokeColor=none;fillColor=none;html=1;fontSize=24;fontStyle=1;verticalAlign=middle;align=left;" vertex="1" parent="1">
          <mxGeometry x="45" y="40" width="435" height="60" as="geometry" />
        </mxCell>
        <mxCell id="2uwC-OZRnTKWb9pU1a_G-16" style="edgeStyle=orthogonalEdgeStyle;rounded=0;orthogonalLoop=1;jettySize=auto;html=1;exitX=0.5;exitY=1;exitDx=0;exitDy=0;entryX=0.5;entryY=0;entryDx=0;entryDy=0;endArrow=block;endFill=1;dashed=1;dashPattern=8 8;" edge="1" parent="1" source="2uwC-OZRnTKWb9pU1a_G-10" target="2uwC-OZRnTKWb9pU1a_G-12">
          <mxGeometry relative="1" as="geometry" />
        </mxCell>
        <mxCell id="2uwC-OZRnTKWb9pU1a_G-10" value="&lt;font style=&quot;font-size: 15px;&quot;&gt;&lt;b&gt;Users&lt;/b&gt;&lt;/font&gt;" style="rounded=0;whiteSpace=wrap;html=1;" vertex="1" parent="1">
          <mxGeometry x="630" y="850" width="120" height="60" as="geometry" />
        </mxCell>
        <mxCell id="2uwC-OZRnTKWb9pU1a_G-11" value="&lt;div align=&quot;left&quot;&gt;&lt;font style=&quot;font-size: 25px;&quot;&gt;Entity Relationships Diagram (ERP):&lt;/font&gt;&lt;font style=&quot;font-size: 20px;&quot;&gt;&lt;br&gt;Conceptual level relationships&lt;/font&gt;&lt;/div&gt;" style="text;strokeColor=none;fillColor=none;html=1;fontSize=24;fontStyle=1;verticalAlign=middle;align=left;" vertex="1" parent="1">
          <mxGeometry x="47" y="840" width="443" height="70" as="geometry" />
        </mxCell>
        <mxCell id="2uwC-OZRnTKWb9pU1a_G-18" style="edgeStyle=orthogonalEdgeStyle;rounded=0;orthogonalLoop=1;jettySize=auto;html=1;exitX=0.5;exitY=1;exitDx=0;exitDy=0;entryX=0.5;entryY=0;entryDx=0;entryDy=0;dashed=1;dashPattern=8 8;" edge="1" parent="1" source="2uwC-OZRnTKWb9pU1a_G-12" target="2uwC-OZRnTKWb9pU1a_G-15">
          <mxGeometry relative="1" as="geometry" />
        </mxCell>
        <mxCell id="2uwC-OZRnTKWb9pU1a_G-12" value="&lt;font style=&quot;font-size: 15px;&quot;&gt;&lt;b&gt;Tournaments&lt;/b&gt;&lt;/font&gt;" style="rounded=0;whiteSpace=wrap;html=1;" vertex="1" parent="1">
          <mxGeometry x="630" y="1080" width="120" height="60" as="geometry" />
        </mxCell>
        <mxCell id="2uwC-OZRnTKWb9pU1a_G-20" style="edgeStyle=orthogonalEdgeStyle;rounded=0;orthogonalLoop=1;jettySize=auto;html=1;exitX=0.5;exitY=1;exitDx=0;exitDy=0;entryX=1;entryY=0.5;entryDx=0;entryDy=0;dashed=1;dashPattern=8 8;" edge="1" parent="1" source="2uwC-OZRnTKWb9pU1a_G-13" target="2uwC-OZRnTKWb9pU1a_G-15">
          <mxGeometry relative="1" as="geometry" />
        </mxCell>
        <mxCell id="2uwC-OZRnTKWb9pU1a_G-13" value="&lt;font style=&quot;font-size: 15px;&quot;&gt;&lt;b&gt;Matches&lt;/b&gt;&lt;/font&gt;" style="rounded=0;whiteSpace=wrap;html=1;" vertex="1" parent="1">
          <mxGeometry x="790" y="1080" width="120" height="60" as="geometry" />
        </mxCell>
        <mxCell id="2uwC-OZRnTKWb9pU1a_G-17" style="edgeStyle=orthogonalEdgeStyle;rounded=0;orthogonalLoop=1;jettySize=auto;html=1;exitX=0.5;exitY=0;exitDx=0;exitDy=0;entryX=0.5;entryY=0;entryDx=0;entryDy=0;startArrow=block;startFill=1;endArrow=block;endFill=1;dashed=1;dashPattern=8 8;" edge="1" parent="1" source="2uwC-OZRnTKWb9pU1a_G-14" target="2uwC-OZRnTKWb9pU1a_G-13">
          <mxGeometry relative="1" as="geometry">
            <mxPoint x="850" y="920" as="targetPoint" />
            <Array as="points">
              <mxPoint x="530" y="1000" />
              <mxPoint x="850" y="1000" />
            </Array>
          </mxGeometry>
        </mxCell>
        <mxCell id="2uwC-OZRnTKWb9pU1a_G-19" style="edgeStyle=orthogonalEdgeStyle;rounded=0;orthogonalLoop=1;jettySize=auto;html=1;exitX=0.5;exitY=1;exitDx=0;exitDy=0;entryX=0;entryY=0.5;entryDx=0;entryDy=0;dashed=1;dashPattern=8 8;" edge="1" parent="1" source="2uwC-OZRnTKWb9pU1a_G-14" target="2uwC-OZRnTKWb9pU1a_G-15">
          <mxGeometry relative="1" as="geometry">
            <mxPoint x="529.6666666666667" y="1280" as="targetPoint" />
          </mxGeometry>
        </mxCell>
        <mxCell id="2uwC-OZRnTKWb9pU1a_G-14" value="&lt;font style=&quot;font-size: 15px;&quot;&gt;&lt;b&gt;Users&lt;/b&gt;&lt;/font&gt;" style="rounded=0;whiteSpace=wrap;html=1;" vertex="1" parent="1">
          <mxGeometry x="470" y="1080" width="120" height="60" as="geometry" />
        </mxCell>
        <mxCell id="2uwC-OZRnTKWb9pU1a_G-15" value="&lt;font style=&quot;font-size: 15px;&quot;&gt;&lt;b&gt;Matches&lt;/b&gt;&lt;/font&gt;" style="rounded=0;whiteSpace=wrap;html=1;" vertex="1" parent="1">
          <mxGeometry x="630" y="1221" width="120" height="60" as="geometry" />
        </mxCell>
        <mxCell id="2uwC-OZRnTKWb9pU1a_G-21" value="&lt;div style=&quot;line-height: 80%;&quot;&gt;&lt;div&gt;&lt;font style=&quot;line-height: 80%; font-size: 15px;&quot;&gt;N : M&lt;/font&gt;&lt;/div&gt;&lt;div&gt;&lt;font style=&quot;line-height: 80%; font-size: 15px;&quot;&gt;(friendships)&lt;/font&gt;&lt;/div&gt;&lt;/div&gt;" style="text;strokeColor=none;fillColor=none;html=1;fontSize=24;fontStyle=1;verticalAlign=middle;align=center;" vertex="1" parent="1">
          <mxGeometry x="557" y="936" width="100" height="40" as="geometry" />
        </mxCell>
        <mxCell id="2uwC-OZRnTKWb9pU1a_G-22" value="&lt;div style=&quot;line-height: 80%;&quot;&gt;&lt;div&gt;&lt;font style=&quot;line-height: 80%; font-size: 15px;&quot;&gt;N : M&lt;/font&gt;&lt;/div&gt;&lt;div&gt;&lt;font style=&quot;line-height: 80%; font-size: 15px;&quot;&gt;(registrations)&lt;/font&gt;&lt;/div&gt;&lt;/div&gt;" style="text;strokeColor=none;fillColor=none;html=1;fontSize=24;fontStyle=1;verticalAlign=middle;align=center;" vertex="1" parent="1">
          <mxGeometry x="730" y="936" width="100" height="40" as="geometry" />
        </mxCell>
        <mxCell id="2uwC-OZRnTKWb9pU1a_G-23" value="&lt;font style=&quot;font-size: 15px;&quot;&gt;1: N&lt;/font&gt;" style="text;strokeColor=none;fillColor=none;html=1;fontSize=24;fontStyle=1;verticalAlign=middle;align=center;" vertex="1" parent="1">
          <mxGeometry x="670" y="1160" width="100" height="40" as="geometry" />
        </mxCell>
        <mxCell id="2uwC-OZRnTKWb9pU1a_G-24" value="&lt;h2 align=&quot;left&quot; data-end=&quot;1155&quot; data-start=&quot;1136&quot;&gt;&lt;font style=&quot;font-size: 10px;&quot;&gt;Relationships&lt;/font&gt;&lt;/h2&gt;&lt;div align=&quot;left&quot;&gt;&lt;p data-end=&quot;1272&quot; data-start=&quot;1159&quot;&gt;&lt;font style=&quot;font-size: 10px;&quot;&gt;&lt;strong data-end=&quot;1186&quot; data-start=&quot;1159&quot;&gt;- Users --- N:M --- Users&lt;/strong&gt;&lt;br&gt;&lt;em data-end=&quot;1272&quot; data-start=&quot;1191&quot;&gt;(friendships: a user can have many friends, each friendship involves two users&lt;/em&gt;&lt;/font&gt;&lt;/p&gt;&lt;p data-end=&quot;1403&quot; data-start=&quot;1276&quot;&gt;&lt;font style=&quot;font-size: 10px;&quot;&gt;&lt;strong data-end=&quot;1309&quot; data-start=&quot;1276&quot;&gt;- Users --- N:M --- Tournaments&lt;/strong&gt;&lt;br&gt;&lt;em data-end=&quot;1403&quot; data-start=&quot;1314&quot;&gt;(registrations: a user can join many tournaments, and a tournament can have many users)&lt;/em&gt;&lt;/font&gt;&lt;/p&gt;&lt;p data-end=&quot;1513&quot; data-start=&quot;1407&quot;&gt;&lt;font style=&quot;font-size: 10px;&quot;&gt;&lt;strong data-end=&quot;1436&quot; data-start=&quot;1407&quot;&gt;- Users --- N:M --- Matches&lt;/strong&gt;&lt;br&gt;&lt;em data-end=&quot;1513&quot; data-start=&quot;1441&quot;&gt;(matches: a user can play many matches, each match involves two users)&lt;/em&gt;&lt;/font&gt;&lt;/p&gt;&lt;p data-end=&quot;1636&quot; data-start=&quot;1517&quot;&gt;&lt;font style=&quot;font-size: 10px;&quot;&gt;&lt;strong data-end=&quot;1552&quot; data-start=&quot;1517&quot;&gt;- Tournaments --- 1:N --- Matches&lt;/strong&gt;&lt;br&gt;&lt;em data-end=&quot;1636&quot; data-start=&quot;1557&quot;&gt;(a tournament consists of many matches, each match belongs to one tournament)&lt;br&gt;&lt;br&gt;&lt;/em&gt;&lt;/font&gt;&lt;/p&gt;&lt;/div&gt;&lt;font style=&quot;font-size: 10px;&quot;&gt;No &lt;/font&gt;&lt;font style=&quot;font-size: 9px;&quot;&gt;&lt;code data-end=&quot;1694&quot; data-start=&quot;1673&quot;&gt;&lt;span style=&quot;background-color: light-dark(rgb(255, 255, 255), rgb(128, 128, 128));&quot;&gt;&lt;span style=&quot;background-color: light-dark(#ffffff, var(--ge-dark-color, #121212));&quot;&gt;tournament_register&lt;/span&gt;&lt;/span&gt;&lt;/code&gt;&lt;/font&gt;&lt;font style=&quot;font-size: 10px;&quot;&gt; table drawn — it’s implicit in the N:M between users and tournaments.&lt;/font&gt;&lt;br&gt;&lt;font style=&quot;font-size: 10px;&quot;&gt;No &lt;/font&gt;&lt;font style=&quot;font-size: 9px;&quot;&gt;&lt;code data-end=&quot;1785&quot; data-start=&quot;1772&quot;&gt;&lt;span style=&quot;background-color: light-dark(rgb(255, 255, 255), rgb(153, 153, 153));&quot;&gt;&lt;span style=&quot;background-color: light-dark(#ffffff, var(--ge-dark-color, #121212));&quot;&gt;friendships&lt;/span&gt;&lt;/span&gt;&lt;/code&gt;&lt;/font&gt;&lt;font style=&quot;font-size: 10px;&quot;&gt; table drawn — it’s implicit in the N:M between users and users.&lt;/font&gt;&lt;div align=&quot;left&quot;&gt;&lt;br&gt;&lt;p data-end=&quot;1636&quot; data-start=&quot;1517&quot;&gt;&lt;br&gt;&lt;/p&gt;&lt;/div&gt;" style="rounded=0;whiteSpace=wrap;html=1;align=left;opacity=0;" vertex="1" parent="1">
          <mxGeometry x="50" y="920" width="400" height="300" as="geometry" />
        </mxCell>
      </root>
    </mxGraphModel>
  </diagram>
</mxfile>
